<?xml version="1.0" encoding="UTF-8" standalone="no"?>
<svg
   version="1.0"
   width="198pt"
   height="97pt"
   viewBox="0 0 198 97"
   preserveAspectRatio="xMidYMid"
   id="svg56"
   xmlns="http://www.w3.org/2000/svg">
  <defs
     id="defs60" />
  <g
     transform="matrix(0.1,0,0,-0.1,0,97)"
     fill="#000000"
     stroke="none"
     id="g54">
    <path
       d="M 180,951 C 127,936 66,765 85,682 c 3,-17 28,-56 56,-87 52,-59 61,-94 36,-130 -20,-26 -34,-12 -54,53 -9,31 -18,58 -18,60 -1,1 -22,-7 -48,-18 L 12,540 36,477 c 27,-69 94,-170 115,-175 33,-6 109,167 109,247 0,30 -8,43 -55,86 -30,29 -55,57 -55,63 0,19 60,14 97,-9 19,-12 35,-20 37,-18 1,2 14,48 29,103 31,111 31,111 -42,158 -47,29 -51,30 -91,19 z m 76,-42 c 49,-30 54,-46 38,-108 -19,-73 -27,-82 -78,-75 -49,7 -86,-8 -86,-34 0,-15 -2,-15 -10,-2 -25,39 -3,143 44,205 31,41 46,43 92,14 z M 209,589 c 20,-25 22,-34 12,-52 -10,-19 -11,-20 -8,-2 1,10 -10,33 -25,49 -16,17 -28,34 -28,38 0,14 25,-3 49,-33 z M 85,522 c 6,-4 17,-20 25,-36 21,-41 45,-54 70,-39 28,18 33,0 13,-46 -23,-53 -42,-59 -71,-24 -63,76 -90,185 -37,145 z"
       id="path34" />
    <path
       d="M 590,919 C 590,845 566,761 494,581 453,479 419,387 418,375 c -1,-11 9,-35 23,-54 l 24,-33 7,64 c 4,44 21,95 53,167 33,72 44,106 36,111 -9,5 -5,27 13,81 13,41 30,94 36,118 17,64 30,33 25,-56 -3,-40 -1,-83 4,-95 8,-22 9,-22 15,7 3,17 7,67 8,113 1,84 1,84 -35,120 l -37,37 z"
       id="path36" />
    <path
       d="m 741,846 c -22,-52 -41,-97 -41,-101 0,-3 -9,-27 -21,-52 -11,-25 -18,-47 -16,-49 6,-7 57,63 57,78 0,7 11,35 24,62 27,55 36,50 47,-29 5,-27 15,-90 23,-140 9,-49 16,-107 16,-128 0,-39 -27,-104 -53,-125 -12,-10 -15,-5 -21,34 -3,26 -6,91 -6,146 0,55 -5,108 -10,119 -15,28 -39,23 -46,-8 -3,-16 -16,-59 -27,-98 -12,-38 -22,-72 -22,-75 -4,-22 -18,-50 -26,-50 -5,0 -9,15 -10,33 -1,64 -10,131 -20,146 -7,11 -9,-33 -5,-144 3,-88 6,-186 6,-217 0,-32 4,-58 10,-58 6,0 10,10 10,23 0,12 20,99 44,192 24,94 47,191 51,218 15,101 25,37 27,-185 l 3,-233 64,125 64,124 -17,116 c -9,63 -24,172 -34,243 -9,70 -19,127 -23,127 -3,0 -25,-42 -48,-94 z"
       id="path38" />
    <path
       d="M 1477,908 C 1443,863 1378,714 1279,460 1234,342 1195,244 1194,242 1193,240 937,197 624,145 131,63 53,48 36,29 L 15,8 120,14 c 58,3 166,8 240,11 200,8 355,15 445,20 44,2 162,7 263,11 l 183,7 -5,36 c -18,112 -17,121 20,215 20,50 72,162 116,249 75,147 116,203 142,194 6,-2 18,-35 26,-74 8,-40 18,-74 22,-78 12,-12 22,67 23,181 0,96 -3,115 -19,133 -29,32 -70,27 -99,-11 z m 91,-87 c 3,-65 2,-67 -30,-50 -25,13 -72,-4 -93,-34 -8,-12 -17,-18 -21,-15 -9,10 46,130 75,160 22,25 27,27 45,14 17,-11 22,-26 24,-75 z M 1211,168 c 3,-86 3,-86 -108,-87 C 1057,81 939,76 842,70 537,53 352,49 345,60 c -8,13 16,18 285,60 67,10 420,70 475,80 22,4 55,8 73,9 31,1 32,0 33,-41 z"
       id="path40" />
    <path
       d="m 430,893 c -33,-26 -48,-46 -56,-76 l -11,-42 40,-3 c 21,-2 41,-1 44,1 7,8 40,157 34,156 -3,0 -26,-16 -51,-36 z"
       id="path42" />
    <path
       d="m 1099,908 c 0,-2 -3,-19 -5,-38 -17,-128 -75,-552 -80,-582 l -6,-38 34,6 c 37,7 112,74 159,141 16,23 45,84 65,135 29,74 37,111 41,185 6,89 5,94 -22,129 -33,43 -78,64 -140,64 -25,0 -45,-1 -46,-2 z m 146,-63 c 34,-34 40,-52 35,-105 -3,-34 -6,-35 -34,-16 -37,23 -97,21 -126,-6 l -23,-22 6,55 c 9,68 17,110 23,121 3,4 23,8 44,8 32,0 46,-7 75,-35 z m -4,-151 c 38,-34 19,-81 -65,-163 -31,-30 -57,-53 -60,-50 -2,2 3,57 12,123 l 15,118 39,-5 c 22,-3 48,-13 59,-23 z m -31,-230 c -30,-61 -131,-169 -152,-162 -12,5 -13,18 -6,80 5,40 14,85 21,101 l 12,27 16,-22 c 15,-19 20,-20 47,-9 17,7 38,22 48,32 31,34 39,5 14,-47 z"
       id="path44" />
    <path
       d="m 988,856 c -31,-11 -56,-24 -57,-28 -1,-5 -1,-19 -1,-32 0,-23 0,-23 58,-12 l 57,12 6,42 c 3,23 3,41 0,41 -3,-1 -31,-11 -63,-23 z"
       id="path46" />
    <path
       d="m 969,753 -36,-4 -7,-97 c -9,-137 -31,-262 -54,-310 -11,-23 -18,-42 -15,-42 4,0 30,18 60,40 49,37 53,44 53,81 0,57 30,257 45,302 9,26 9,37 1,35 -6,-1 -27,-3 -47,-5 z"
       id="path48" />
    <path
       d="m 1408.7059,507.13146 15.0479,-35.51662 112.8954,17.97013 c 159.1922,26.28063 308.453,36.26008 370.004,25.31756 29.4871,-5.22213 53.2387,-7.41719 52.3656,-4.37129 -1.164,4.06119 -29.3019,25.80543 -63.1755,50.57676 -56.5457,40.18407 -65.7098,42.43556 -107.9959,32.87003 -65.1436,-14.7361 -302.4478,-35.98274 -358.242,-32.38703 -32.3336,2.41597 -44.9053,-0.42784 -40.2915,-8.03318 2.8891,-5.83326 11.2861,-26.63746 19.392,-46.42636 z"
       id="path48-2"
       style="stroke-width:1.11157" />
    <path
       d="M 325,623 C 309,558 282,453 264,390 246,327 234,273 236,271 c 7,-7 67,27 104,58 30,25 33,34 66,211 18,102 34,188 34,193 0,4 -19,7 -43,7 h -43 z m 81,50 C 403,663 392,601 380,535 355,390 354,387 332,363 c -20,-22 -52,-37 -52,-23 0,5 7,35 16,67 9,32 27,103 41,158 31,130 29,125 53,125 16,0 20,-5 16,-17 z"
       id="path50" />
    <path
       d="m 1565,474 c -6,-31 -38,-184 -83,-383 -5,-23 -3,-24 34,-18 21,4 76,7 122,7 h 82 v 111 c 0,110 0,111 -22,106 -13,-3 -39,-9 -59,-12 l -36,-7 -5,107 c -5,113 -22,157 -33,89 z m 77,-214 c 20,0 40,-6 45,-12 11,-15 10,-95 -1,-120 -9,-19 -99,-34 -142,-24 -25,7 -26,9 -19,52 3,25 13,68 21,96 l 15,50 23,-21 c 14,-13 35,-21 58,-21 z"
       id="path52" />
  </g>
</svg>
