<?xml version="1.0" encoding="UTF-8" standalone="no"?>
<svg version="1.0"
     width="198pt"
     height="97pt"
     viewBox="0 0 198 97"
     preserveAspectRatio="xMidYMid"
     id="svg56"
     xmlns="http://www.w3.org/2000/svg">

    <defs id="defs60">
        <linearGradient id="linearGradient4285">
            <stop style="stop-color:#3783d3;stop-opacity:1;"
                  offset="0"
                  id="stop4283"/>
        </linearGradient>
        <filter
                style="color-interpolation-filters:sRGB;"
                id="filter2173"
                x="0"
                y="0"
                width="1"
                height="1">
            <feComposite
                    in2="SourceGraphic"
                    operator="arithmetic"
                    k1="10"
                    k2="1"
                    result="composite1"
                    id="feComposite2159"/>
            <feColorMatrix
                    in="composite1"
                    values="1"
                    type="saturate"
                    result="colormatrix1"
                    id="feColorMatrix2161"/>
            <feFlood
                    flood-opacity="1"
                    flood-color="rgb(158,0,0)"
                    result="flood1"
                    id="feFlood2163"/>
            <feBlend
                    in="flood1"
                    in2="colormatrix1"
                    mode="multiply"
                    result="blend1"
                    id="feBlend2165"/>
            <feBlend
                    in2="blend1"
                    mode="screen"
                    result="blend2"
                    id="feBlend2167"/>
            <feColorMatrix
                    in="blend2"
                    values="1"
                    type="saturate"
                    result="colormatrix2"
                    id="feColorMatrix2169"/>
            <feComposite
                    in="colormatrix2"
                    in2="SourceGraphic"
                    operator="in"
                    k2="1"
                    result="fbSourceGraphic"
                    id="feComposite2171"/>
            <feColorMatrix
                    result="fbSourceGraphicAlpha"
                    in="fbSourceGraphic"
                    values="0 0 0 -1 0 0 0 0 -1 0 0 0 0 -1 0 0 0 0 1 0"
                    id="feColorMatrix2175"/>
            <feComposite
                    in2="fbSourceGraphic"
                    id="feComposite2177"
                    operator="arithmetic"
                    k1="10"
                    k2="1"
                    result="composite1"
                    in="fbSourceGraphic"/>
            <feColorMatrix
                    id="feColorMatrix2179"
                    in="composite1"
                    values="1"
                    type="saturate"
                    result="colormatrix1"/>
            <feFlood
                    id="feFlood2181"
                    flood-opacity="1"
                    flood-color="rgb(255,72,72)"
                    result="flood1"/>
            <feBlend
                    in2="colormatrix1"
                    id="feBlend2183"
                    in="flood1"
                    mode="multiply"
                    result="blend1"/>
            <feBlend
                    in2="blend1"
                    id="feBlend2185"
                    mode="screen"
                    result="blend2"/>
            <feColorMatrix
                    id="feColorMatrix2187"
                    in="blend2"
                    values="1"
                    type="saturate"
                    result="colormatrix2"/>
            <feComposite
                    in2="fbSourceGraphic"
                    id="feComposite2189"
                    in="colormatrix2"
                    operator="in"
                    k2="1"
                    result="fbSourceGraphic"/>
            <feColorMatrix
                    result="fbSourceGraphicAlpha"
                    in="fbSourceGraphic"
                    values="0 0 0 -1 0 0 0 0 -1 0 0 0 0 -1 0 0 0 0 1 0"
                    id="feColorMatrix2191"/>
            <feComposite
                    in2="fbSourceGraphic"
                    id="feComposite2193"
                    operator="arithmetic"
                    k1="10"
                    k2="1"
                    result="composite1"
                    in="fbSourceGraphic"/>
            <feColorMatrix
                    id="feColorMatrix2195"
                    in="composite1"
                    values="1"
                    type="saturate"
                    result="colormatrix1"/>
            <feFlood
                    id="feFlood2197"
                    flood-opacity="1"
                    flood-color="rgb(255,72,72)"
                    result="flood1"/>
            <feBlend
                    in2="colormatrix1"
                    id="feBlend2199"
                    in="flood1"
                    mode="multiply"
                    result="blend1"/>
            <feBlend
                    in2="blend1"
                    id="feBlend2201"
                    mode="screen"
                    result="blend2"/>
            <feColorMatrix
                    id="feColorMatrix2203"
                    in="blend2"
                    values="1"
                    type="saturate"
                    result="colormatrix2"/>
            <feComposite
                    in2="fbSourceGraphic"
                    id="feComposite2205"
                    in="colormatrix2"
                    operator="in"
                    k2="1"
                    result="fbSourceGraphic"/>
            <feColorMatrix
                    result="fbSourceGraphicAlpha"
                    in="fbSourceGraphic"
                    values="0 0 0 -1 0 0 0 0 -1 0 0 0 0 -1 0 0 0 0 1 0"
                    id="feColorMatrix2207"/>
            <feComposite
                    in2="fbSourceGraphic"
                    id="feComposite2209"
                    operator="arithmetic"
                    k1="10"
                    k2="1"
                    result="composite1"
                    in="fbSourceGraphic"/>
            <feColorMatrix
                    id="feColorMatrix2211"
                    in="composite1"
                    values="1"
                    type="saturate"
                    result="colormatrix1"/>
            <feFlood
                    id="feFlood2213"
                    flood-opacity="1"
                    flood-color="rgb(255,72,72)"
                    result="flood1"/>
            <feBlend
                    in2="colormatrix1"
                    id="feBlend2215"
                    in="flood1"
                    mode="multiply"
                    result="blend1"/>
            <feBlend
                    in2="blend1"
                    id="feBlend2217"
                    mode="screen"
                    result="blend2"/>
            <feColorMatrix
                    id="feColorMatrix2219"
                    in="blend2"
                    values="1"
                    type="saturate"
                    result="colormatrix2"/>
            <feComposite
                    in2="fbSourceGraphic"
                    id="feComposite2221"
                    in="colormatrix2"
                    operator="in"
                    k2="1"
                    result="fbSourceGraphic"/>
            <feColorMatrix
                    result="fbSourceGraphicAlpha"
                    in="fbSourceGraphic"
                    values="0 0 0 -1 0 0 0 0 -1 0 0 0 0 -1 0 0 0 0 1 0"
                    id="feColorMatrix2223"/>
            <feComposite
                    in2="fbSourceGraphic"
                    id="feComposite2225"
                    operator="arithmetic"
                    k1="10"
                    k2="1"
                    result="composite1"
                    in="fbSourceGraphic"/>
            <feColorMatrix
                    id="feColorMatrix2227"
                    in="composite1"
                    values="1"
                    type="saturate"
                    result="colormatrix1"/>
            <feFlood
                    id="feFlood2229"
                    flood-opacity="1"
                    flood-color="rgb(255,72,72)"
                    result="flood1"/>
            <feBlend
                    in2="colormatrix1"
                    id="feBlend2231"
                    in="flood1"
                    mode="multiply"
                    result="blend1"/>
            <feBlend
                    in2="blend1"
                    id="feBlend2233"
                    mode="screen"
                    result="blend2"/>
            <feColorMatrix
                    id="feColorMatrix2235"
                    in="blend2"
                    values="1"
                    type="saturate"
                    result="colormatrix2"/>
            <feComposite
                    in2="fbSourceGraphic"
                    id="feComposite2237"
                    in="colormatrix2"
                    operator="in"
                    k2="1"
                    result="fbSourceGraphic"/>
            <feColorMatrix
                    result="fbSourceGraphicAlpha"
                    in="fbSourceGraphic"
                    values="0 0 0 -1 0 0 0 0 -1 0 0 0 0 -1 0 0 0 0 1 0"
                    id="feColorMatrix2239"/>
            <feComposite
                    in2="fbSourceGraphic"
                    id="feComposite2241"
                    operator="arithmetic"
                    k1="0"
                    k2="1"
                    result="composite1"
                    in="fbSourceGraphic"/>
            <feColorMatrix
                    id="feColorMatrix2243"
                    in="composite1"
                    values="1"
                    type="saturate"
                    result="colormatrix1"/>
            <feFlood
                    id="feFlood2245"
                    flood-opacity="1"
                    flood-color="rgb(255,72,72)"
                    result="flood1"/>
            <feBlend
                    in2="colormatrix1"
                    id="feBlend2247"
                    in="flood1"
                    mode="multiply"
                    result="blend1"/>
            <feBlend
                    in2="blend1"
                    id="feBlend2249"
                    mode="screen"
                    result="blend2"/>
            <feColorMatrix
                    id="feColorMatrix2251"
                    in="blend2"
                    values="1"
                    type="saturate"
                    result="colormatrix2"/>
            <feComposite
                    in2="fbSourceGraphic"
                    id="feComposite2253"
                    in="colormatrix2"
                    operator="in"
                    k2="1"
                    result="composite2"/>
        </filter>
    </defs>
    <g
            transform="matrix(0.1,0,0,-0.1,0,97)"
            fill="#000000"
            stroke="none"
            id="g54">
        <path
                d="M 180,951 C 127,936 66,765 85,682 c 3,-17 28,-56 56,-87 52,-59 61,-94 36,-130 -20,-26 -34,-12 -54,53 -9,31 -18,58 -18,60 -1,1 -22,-7 -48,-18 L 12,540 36,477 c 27,-69 94,-170 115,-175 33,-6 109,167 109,247 0,30 -8,43 -55,86 -30,29 -55,57 -55,63 0,19 60,14 97,-9 19,-12 35,-20 37,-18 1,2 14,48 29,103 31,111 31,111 -42,158 -47,29 -51,30 -91,19 z M 130,692 c -86.666667,185.33333 -43.333333,92.66667 0,0 z"
                id="path34"
                style="fill:#7883d3;fill-opacity:1"/>
        <path
                d="M 590,919 C 590,845 566,761 494,581 453,479 419,387 418,375 c -1,-11 9,-35 23,-54 l 24,-33 7,64 c 4,44 21,95 53,167 102.22061,264.36739 112.5183,66.54435 137.67769,122.61155 C 665.67769,658.61157 661,752 662,798 c 1,84 1,84 -35,120 l -37,37 z"
                id="path36"
                style="fill:#7883d3;fill-opacity:1"/>
        <path
                d="m 741,846 c -22,-52 -41,-97 -41,-101 0,-3 -9,-27 -21,-52 -91.28165,-157.92896 -91.95699,333.2932 -113.1405,-75.32231 -7,11 4.01653,-37.33885 8.01653,-148.33885 C 576.87603,381.33884 590,279 590,248 c 0,-32 4,-58 10,-58 6,0 10,10 10,23 0,12 20,99 44,192 24,94 47,191 51,218 15,101 25,37 27,-185 l 3,-233 64,125 64,124 -17,116 c -9,63 -24,172 -34,243 -9,70 -19,127 -23,127 -3,0 -25,-42 -48,-94 z"
                id="path38"
                style="fill:#7883d3;fill-opacity:1"/>
        <path
                d="M 1477,908 C 1443,863 1378,714 1279,460 1234,342 1195,244 1194,242 1193,240 937,197 624,145 131,63 53,48 36,29 L 15,8 120,14 c 58,3 166,8 240,11 200,8 355,15 445,20 44,2 162,7 263,11 l 183,7 -5,36 c -18,112 -17,121 20,215 20,50 72,162 116,249 75,147 116,203 142,194 6,-2 18,-35 26,-74 8,-40 18,-74 22,-78 12,-12 22,67 23,181 0,96 -3,115 -19,133 -29,32 -70,27 -99,-11 z"
                id="path40"
                style="fill:#7883d3;fill-opacity:1"/>
        <path
                d="m 430,893 c -33,-26 -48,-46 -56,-76 l -11,-42 40,-3 c 21,-2 41,-1 44,1 7,8 40,157 34,156 -3,0 -26,-16 -51,-36 z"
                id="path42"
                style="fill:#7883d3;fill-opacity:1"/>
        <path
                d="m 1099,908 c 0,-2 -3,-19 -5,-38 -17,-128 -75,-552 -80,-582 l -6,-38 34,6 c 37,7 112,74 159,141 16,23 45,84 65,135 29,74 37,111 41,185 6,89 5,94 -22,129 -33,43 -78,64 -140,64 -25,0 -45,-1 -46,-2 z m 111.7107,-359.64463 c -171.4295,-267.3497 -106.9089,-8.6664 -98.6198,52.75207 l 29.4628,197.54545 c 169.9714,-22.981 100.7774,-195.80594 69.157,-250.29752 z M 1148,479 c -765.33333,327.33333 -382.66667,163.66667 0,0 z"
                id="path44"
                style="fill:#7883d3;fill-opacity:1"/>
        <path
                d="m 988,856 c -31,-11 -56,-24 -57,-28 -1,-5 -1,-19 -1,-32 0,-23 0,-23 58,-12 l 57,12 6,42 c 3,23 3,41 0,41 -3,-1 -31,-11 -63,-23 z"
                id="path46"
                style="fill:#7883d3;fill-opacity:1"/>
        <path
                d="m 969,753 -36,-4 -7,-97 c -9,-137 -31,-262 -54,-310 -11,-23 -18,-42 -15,-42 4,0 30,18 60,40 49,37 53,44 53,81 0,57 30,257 45,302 9,26 9,37 1,35 -6,-1 -27,-3 -47,-5 z"
                id="path48"
                style="fill:#7883d3;fill-opacity:1"/>
        <path
                d="m 1408.7059,507.13146 15.0479,-35.51662 112.8954,17.97013 c 159.1922,26.28063 308.453,36.26008 370.004,25.31756 29.4871,-5.22213 53.2387,-7.41719 52.3656,-4.37129 -1.164,4.06119 -29.3019,25.80543 -63.1755,50.57676 -56.5457,40.18407 -65.7098,42.43556 -107.9959,32.87003 -65.1436,-14.7361 -302.4478,-35.98274 -358.242,-32.38703 -32.3336,2.41597 -44.9053,-0.42784 -40.2915,-8.03318 2.8891,-5.83326 11.2861,-26.63746 19.392,-46.42636 z"
                id="path48-2"
                style="stroke-width:1.11157;fill:#7883d3;fill-opacity:1"/>
        <path
                d="M 325,623 C 309,558 282,453 264,390 246,327 234,273 236,271 c 7,-7 67,27 104,58 30,25 33,34 66,211 18,102 34,188 34,193 0,4 -19,7 -43,7 h -43 z"
                id="path50"
                style="fill:#7883d3;fill-opacity:1"/>
        <path
                d="m 1565,474 c -6,-31 -38,-184 -83,-383 -5,-23 -3,-24 34,-18 21,4 76,7 122,7 h 82 v 111 c 0,110 0,111 -22,106 -13,-3 -39,-9 -59,-12 l -36,-7 -5,107 c -5,113 -22,157 -33,89 z"
                id="path52"
                style="fill:#7883d3;fill-opacity:1"/>
    </g>
</svg>
